<svg width="24" height="24" viewBox="0 0 24 24" fill="none" xmlns="http://www.w3.org/2000/svg">
<g clip-path="url(#clip0_137_444)">
<circle cx="12" cy="12" r="11.5" fill="white" stroke="#F2F4F7"/>
<path d="M13.5097 14.6251L12.3648 13.4898C11.8386 12.9679 11.5755 12.707 11.2726 12.6091C11.0061 12.523 10.7193 12.523 10.4528 12.6091C10.1499 12.707 9.88674 12.9679 9.36051 13.4898L6.69458 16.1748M13.5097 14.6251L13.7373 14.3994C14.2746 13.8666 14.5432 13.6002 14.8515 13.503C15.1225 13.4175 15.4138 13.4208 15.6829 13.5125C15.9888 13.6168 16.2512 13.8893 16.7761 14.4344L17.3333 15.0001M13.5097 14.6251L16.1466 17.3085M8.80057 6.66695H15.2006C15.9473 6.66695 16.3207 6.66695 16.6059 6.81227C16.8568 6.9401 17.0607 7.14408 17.1886 7.39496C17.3339 7.68017 17.3339 8.05354 17.3339 8.80028V15.2003C17.3339 15.947 17.3339 16.3204 17.1886 16.6056C17.0607 16.8565 16.8568 17.0605 16.6059 17.1883C16.3207 17.3336 15.9473 17.3336 15.2006 17.3336H8.80057C8.05383 17.3336 7.68046 17.3336 7.39525 17.1883C7.14437 17.0605 6.94039 16.8565 6.81256 16.6056C6.66724 16.3204 6.66724 15.947 6.66724 15.2003V8.80028C6.66724 8.05354 6.66724 7.68017 6.81256 7.39496C6.94039 7.14408 7.14437 6.9401 7.39525 6.81227C7.68046 6.66695 8.05383 6.66695 8.80057 6.66695ZM15.3339 10.0003C15.3339 10.7367 14.7369 11.3336 14.0006 11.3336C13.2642 11.3336 12.6672 10.7367 12.6672 10.0003C12.6672 9.2639 13.2642 8.66695 14.0006 8.66695C14.7369 8.66695 15.3339 9.2639 15.3339 10.0003Z" stroke="#27AE60" stroke-linecap="round" stroke-linejoin="round"/>
</g>
<defs>
<clipPath id="clip0_137_444">
<rect width="24" height="24" fill="white"/>
</clipPath>
</defs>
</svg>
