<svg width="15" height="14" viewBox="0 0 15 14" fill="none"
    xmlns="http://www.w3.org/2000/svg">
    <path d="M1.08936 13.2679C1.08936 10.5755 3.27197 8.39289 5.96436 8.39289C6.57777 8.39289 7.16472 8.50619 7.70543 8.71299M8.75007 13.2679L10.1603 12.9858C10.2833 12.9613 10.3448 12.949 10.4021 12.9265C10.453 12.9065 10.5013 12.8806 10.5462 12.8494C10.5967 12.8141 10.641 12.7698 10.7297 12.6811L13.6251 9.78575C14.0097 9.40112 14.0097 8.77752 13.6251 8.39289C13.2404 8.00827 12.6168 8.00827 12.2322 8.39289L9.33685 11.2883C9.24817 11.3769 9.20384 11.4213 9.16861 11.4718C9.13734 11.5166 9.11146 11.565 9.0915 11.6159C9.06901 11.6732 9.05671 11.7347 9.03212 11.8576L8.75007 13.2679ZM8.75007 3.51789C8.75007 5.0564 7.50286 6.30361 5.96436 6.30361C4.42585 6.30361 3.17864 5.0564 3.17864 3.51789C3.17864 1.97938 4.42585 0.732178 5.96436 0.732178C7.50286 0.732178 8.75007 1.97938 8.75007 3.51789Z" stroke="#9B51E0" stroke-width="1.11429" stroke-linecap="round" stroke-linejoin="round"/>
</svg>
