<svg width="19" height="21" viewBox="0 0 19 21" fill="none"
    xmlns="http://www.w3.org/2000/svg">
    <path d="M12.6251 15.7083H17.8334L16.3699 14.2449C15.9731 13.848 15.7501 13.3097 15.7501 12.7484V9.45834C15.7501 6.73705 14.0109 4.42197 11.5834 3.56397V3.20833C11.5834 2.05774 10.6507 1.125 9.50008 1.125C8.34949 1.125 7.41675 2.05774 7.41675 3.20833V3.56397C4.98926 4.42197 3.25008 6.73705 3.25008 9.45834V12.7484C3.25008 13.3097 3.02711 13.848 2.63022 14.2449L1.16675 15.7083H6.37508M12.6251 15.7083V16.75C12.6251 18.4759 11.226 19.875 9.50008 19.875C7.77419 19.875 6.37508 18.4759 6.37508 16.75V15.7083M12.6251 15.7083H6.37508" stroke="white" stroke-width="1.2" stroke-linecap="round" stroke-linejoin="round"/>
</svg>
