<svg width="22" height="21" viewBox="0 0 22 21" fill="none" xmlns="http://www.w3.org/2000/svg">
    <path d="M9.92664 5.23198H11.9485V7.25385H9.92664V5.23198ZM9.92664 9.27571H11.9485V15.3413H9.92664V9.27571ZM10.9376 0.177317C5.35723 0.177317 0.828247 4.7063 0.828247 10.2866C0.828247 15.867 5.35723 20.396 10.9376 20.396C16.5179 20.396 21.0469 15.867 21.0469 10.2866C21.0469 4.7063 16.5179 0.177317 10.9376 0.177317ZM10.9376 18.3741C6.47936 18.3741 2.85011 14.7449 2.85011 10.2866C2.85011 5.82843 6.47936 2.19918 10.9376 2.19918C15.3958 2.19918 19.025 5.82843 19.025 10.2866C19.025 14.7449 15.3958 18.3741 10.9376 18.3741Z" fill="white"/>
    </svg>
