<svg width="21" height="21" viewBox="0 0 21 21" fill="none"
    xmlns="http://www.w3.org/2000/svg">
    <path d="M19.2296 10.2866C19.2296 15.3115 15.1561 19.385 10.1312 19.385C5.10633 19.385 1.03284 15.3115 1.03284 10.2866C1.03284 5.26174 5.10633 1.18825 10.1312 1.18825C15.1561 1.18825 19.2296 5.26174 19.2296 10.2866Z" stroke="#131A29" stroke-width="2.02187" stroke-linecap="round" stroke-linejoin="round"/>
    <path d="M13.1656 9.61373C13.5031 9.83872 13.6718 9.95122 13.7306 10.093C13.782 10.217 13.782 10.3563 13.7306 10.4803C13.6718 10.6221 13.5031 10.7346 13.1656 10.9596L9.36672 13.4921C8.95828 13.7644 8.75406 13.9006 8.58471 13.8905C8.43717 13.8817 8.30088 13.8087 8.21172 13.6909C8.10937 13.5556 8.10937 13.3101 8.10937 12.8192V7.75407C8.10937 7.26318 8.10937 7.01773 8.21172 6.88243C8.30088 6.76457 8.43717 6.69163 8.58471 6.68282C8.75406 6.67271 8.95828 6.80885 9.36672 7.08115L13.1656 9.61373Z" stroke="#131A29" stroke-width="2.02187" stroke-linecap="round" stroke-linejoin="round"/>
</svg>
