<svg width="16" height="15" viewBox="0 0 16 25" fill="none" xmlns="http://www.w3.org/2000/svg" style="padding-top: 8px; padding-bottom: 5px;">
    <path d="M11.1292 9.37916H10.4709L10.2375 9.15416C11.0542 8.20416 11.5459 6.97083 11.5459 5.62916C11.5459 2.63749 9.12086 0.212494 6.12919 0.212494C3.13752 0.212494 0.712524 2.63749 0.712524 5.62916C0.712524 8.62083 3.13752 11.0458 6.12919 11.0458C7.47086 11.0458 8.70419 10.5542 9.65419 9.73749L9.87919 9.97083V10.6292L14.0459 14.7875L15.2875 13.5458L11.1292 9.37916ZM6.12919 9.37916C4.05419 9.37916 2.37919 7.70416 2.37919 5.62916C2.37919 3.55416 4.05419 1.87916 6.12919 1.87916C8.20419 1.87916 9.87919 3.55416 9.87919 5.62916C9.87919 7.70416 8.20419 9.37916 6.12919 9.37916Z" fill="white"/>
    </svg>
